<svg xmlns="http://www.w3.org/2000/svg" width="1400" height="420" viewBox="0 0 1400 420">
  <rect width="1400" height="420" rx="28" fill="#090B10"/>
  <text x="36" y="52" fill="#FF9A62" font-family="Arial, Helvetica, sans-serif" font-size="24" font-weight="700">01 // CORE SYSTEMS</text>
  <g font-family="Arial, Helvetica, sans-serif">
    <rect x="36" y="82" width="414" height="300" rx="22" fill="#101620" stroke="#6E1631" stroke-width="2"/>
    <rect x="36" y="82" width="414" height="54" rx="22" fill="#6E1631"/>
    <text x="62" y="117" fill="#FFFFFF" font-size="22" font-weight="700">SOFTWARE</text>
    <text x="62" y="174" fill="#D8DEE7" font-size="20">C# / .NET</text>
    <text x="62" y="212" fill="#D8DEE7" font-size="20">REST APIs &amp; Integrations</text>
    <text x="62" y="250" fill="#D8DEE7" font-size="20">Business Rules</text>
    <text x="62" y="288" fill="#D8DEE7" font-size="20">Corporate Systems</text>
    <text x="62" y="326" fill="#D8DEE7" font-size="20">Legacy Modernization</text>

    <rect x="493" y="82" width="414" height="300" rx="22" fill="#101620" stroke="#FF9A62" stroke-width="2"/>
    <rect x="493" y="82" width="414" height="54" rx="22" fill="#FF9A62"/>
    <text x="519" y="117" fill="#111111" font-size="22" font-weight="700">AUTOMATION</text>
    <text x="519" y="174" fill="#D8DEE7" font-size="20">Industrial Optimization</text>
    <text x="519" y="212" fill="#D8DEE7" font-size="20">Process Automation</text>
    <text x="519" y="250" fill="#D8DEE7" font-size="20">Management Systems</text>
    <text x="519" y="288" fill="#D8DEE7" font-size="20">Operational Integration</text>
    <text x="519" y="326" fill="#D8DEE7" font-size="20">Efficiency &amp; Reliability</text>

    <rect x="950" y="82" width="414" height="300" rx="22" fill="#101620" stroke="#6FA8DC" stroke-width="2"/>
    <rect x="950" y="82" width="414" height="54" rx="22" fill="#6FA8DC"/>
    <text x="976" y="117" fill="#111111" font-size="22" font-weight="700">ENGINEERING</text>
    <text x="976" y="174" fill="#D8DEE7" font-size="20">Hardware + Software</text>
    <text x="976" y="212" fill="#D8DEE7" font-size="20">Embedded Systems</text>
    <text x="976" y="250" fill="#D8DEE7" font-size="20">System Integration</text>
    <text x="976" y="288" fill="#D8DEE7" font-size="20">Applied Engineering</text>
    <text x="976" y="326" fill="#D8DEE7" font-size="20">Automation Projects</text>
  </g>
</svg>